<svg width="3874" height="2873" xmlns="http://www.w3.org/2000/svg" xmlns:xlink="http://www.w3.org/1999/xlink" xml:space="preserve" overflow="hidden"><defs><filter id="fx0" x="-10%" y="-10%" width="120%" height="120%" filterUnits="userSpaceOnUse" primitiveUnits="userSpaceOnUse"><feComponentTransfer color-interpolation-filters="sRGB"><feFuncR type="discrete" tableValues="0.0588235 0.0588235"/><feFuncG type="discrete" tableValues="0.0901961 0.0901961"/><feFuncB type="discrete" tableValues="0.164706 0.164706"/><feFuncA type="linear" slope="0.0784314" intercept="0"/></feComponentTransfer><feGaussianBlur stdDeviation="6.11111 6.11111"/></filter><filter id="fx1" x="-10%" y="-10%" width="120%" height="120%" filterUnits="userSpaceOnUse" primitiveUnits="userSpaceOnUse"><feComponentTransfer color-interpolation-filters="sRGB"><feFuncR type="discrete" tableValues="0.0588235 0.0588235"/><feFuncG type="discrete" tableValues="0.0901961 0.0901961"/><feFuncB type="discrete" tableValues="0.164706 0.164706"/><feFuncA type="linear" slope="0.0784314" intercept="0"/></feComponentTransfer><feGaussianBlur stdDeviation="6.11111 6.11111"/></filter><clipPath id="clip2"><rect x="277" y="42" width="3775" height="863"/></clipPath><clipPath id="clip3"><rect x="277" y="42" width="3776" height="863"/></clipPath><clipPath id="clip4"><path d="M274.5 1059.5 274.5 2514.5 2069.5 2514.5 2069.5 1059.5ZM207 43 4081 43 4081 2916 207 2916Z" fill-rule="evenodd" clip-rule="evenodd"/></clipPath><clipPath id="clip5"><path d="M2247.5 1059.5 2247.5 2514.5 4042.5 2514.5 4042.5 1059.5ZM207 43 4081 43 4081 2916 207 2916Z" fill-rule="evenodd" clip-rule="evenodd"/></clipPath></defs><g transform="translate(-207 -43)"><g clip-path="url(#clip2)"><g clip-path="url(#clip3)"><g><path d="M3814.3 68.7261C3833.27 68.7261 3848.66 84.1109 3848.66 103.089L3848.66 893.439C3848.66 912.417 3833.27 927.802 3814.3 927.802L103.089 927.802C84.1109 927.802 68.7261 912.417 68.7261 893.439L68.7261 103.089C68.7261 84.1109 84.1109 68.7261 103.089 68.7261Z" stroke="#DBE3EC" stroke-width="3.4363" fill="#F4F7FA" transform="matrix(1.00028 0 0 1 200.864 -24.6265)"/><path d="M3814.3 68.7261C3833.27 68.7261 3848.66 84.1109 3848.66 103.089L3848.66 171.815C3848.66 190.793 3833.27 206.178 3814.3 206.178L103.089 206.178C84.1109 206.178 68.7261 190.793 68.7261 171.815L68.7261 103.089C68.7261 84.1109 84.1109 68.7261 103.089 68.7261Z" fill="#14385F" transform="matrix(1.00028 0 0 1 200.864 -24.6265)"/><path d="M68.7261 137.452 3848.66 137.452 3848.66 206.178 68.7261 206.178Z" fill="#14385F" transform="matrix(1.00028 0 0 1 200.864 -24.6265)"/><text fill="#FFFFFF" font-family="Arial,Arial_MSFontService,sans-serif" font-weight="700" font-size="18" transform="matrix(3.43728 0 0 3.4363 352.104 137)">DEPLOYED SIGNAL CHAIN</text><path d="M137.452 343.63 687.261 343.63 687.261 659.77 137.452 659.77Z" stroke="#C9D6E3" stroke-width="5.15445" fill="#FFFFFF" transform="matrix(1.00028 0 0 1 200.864 -24.6265)"/><text fill="#14385F" font-family="Arial,Arial_MSFontService,sans-serif" font-weight="700" font-size="15" transform="matrix(3.43728 0 0 3.4363 467.206 439)">UAE sensor</text><text fill="#5B6B7D" font-family="Arial,Arial_MSFontService,sans-serif" font-weight="400" font-size="11.5" transform="matrix(3.43728 0 0 3.4363 529.29 508)">+ </text><text fill="#5B6B7D" font-family="Arial,Arial_MSFontService,sans-serif" font-weight="400" font-size="11.5" transform="matrix(3.43728 0 0 3.4363 563.357 508)">preamp</text><text fill="#5B6B7D" font-family="Arial,Arial_MSFontService,sans-serif" font-weight="400" font-size="11.5" transform="matrix(3.43728 0 0 3.4363 472.67 570)">balanced output</text><path d="M769.732 343.63 1319.54 343.63 1319.54 659.77 769.732 659.77Z" stroke="#E6B07A" stroke-width="5.15445" fill="#FFF6EC" transform="matrix(1.00028 0 0 1 200.864 -24.6265)"/><text fill="#14385F" font-family="Arial,Arial_MSFontService,sans-serif" font-weight="700" font-size="15" transform="matrix(3.43728 0 0 3.4363 1049.53 422)">ADA</text><text fill="#14385F" font-family="Arial,Arial_MSFontService,sans-serif" font-weight="700" font-size="15" transform="matrix(3.43728 0 0 3.4363 1161.23 422)">4945</text><text fill="#14385F" font-family="Arial,Arial_MSFontService,sans-serif" font-weight="700" font-size="15" transform="matrix(3.43728 0 0 3.4363 1275.93 422)">-</text><text fill="#14385F" font-family="Arial,Arial_MSFontService,sans-serif" font-weight="700" font-size="15" transform="matrix(3.43728 0 0 3.4363 1293.1 422)">1 </text><text fill="#14385F" font-family="Arial,Arial_MSFontService,sans-serif" font-weight="700" font-size="15" transform="matrix(3.43728 0 0 3.4363 1336.1 422)">FDA</text><text fill="#5B6B7D" font-family="Arial,Arial_MSFontService,sans-serif" font-weight="400" font-size="11.5" transform="matrix(3.43728 0 0 3.4363 1070.02 487)">AFE · on eval board</text><text fill="#5B6B7D" font-family="Arial,Arial_MSFontService,sans-serif" font-weight="400" font-size="11.5" transform="matrix(3.43728 0 0 3.4363 1086.3 549)">~</text><text fill="#5B6B7D" font-family="Arial,Arial_MSFontService,sans-serif" font-weight="400" font-size="11.5" transform="matrix(3.43728 0 0 3.4363 1109.39 549)">48</text><text fill="#5B6B7D" font-family="Arial,Arial_MSFontService,sans-serif" font-weight="400" font-size="11.5" transform="matrix(3.43728 0 0 3.4363 1153.35 549)">–</text><text fill="#5B6B7D" font-family="Arial,Arial_MSFontService,sans-serif" font-weight="400" font-size="11.5" transform="matrix(3.43728 0 0 3.4363 1175.34 549)">55 </text><text fill="#5B6B7D" font-family="Arial,Arial_MSFontService,sans-serif" font-weight="400" font-size="11.5" transform="matrix(3.43728 0 0 3.4363 1230.29 549)">kHz rolloff</text><path d="M1402.01 343.63 1951.82 343.63 1951.82 659.77 1402.01 659.77Z" stroke="#C9D6E3" stroke-width="5.15445" fill="#FFFFFF" transform="matrix(1.00028 0 0 1 200.864 -24.6265)"/><text fill="#14385F" font-family="Arial,Arial_MSFontService,sans-serif" font-weight="700" font-size="15" transform="matrix(3.43728 0 0 3.4363 1746.41 422)">AD</text><text fill="#14385F" font-family="Arial,Arial_MSFontService,sans-serif" font-weight="700" font-size="15" transform="matrix(3.43728 0 0 3.4363 1820.88 422)">4630</text><text fill="#14385F" font-family="Arial,Arial_MSFontService,sans-serif" font-weight="700" font-size="15" transform="matrix(3.43728 0 0 3.4363 1935.58 422)">-</text><text fill="#14385F" font-family="Arial,Arial_MSFontService,sans-serif" font-weight="700" font-size="15" transform="matrix(3.43728 0 0 3.4363 1952.75 422)">24</text><text fill="#5B6B7D" font-family="Arial,Arial_MSFontService,sans-serif" font-weight="400" font-size="11.5" transform="matrix(3.43728 0 0 3.4363 1736.56 487)">24</text><text fill="#5B6B7D" font-family="Arial,Arial_MSFontService,sans-serif" font-weight="400" font-size="11.5" transform="matrix(3.43728 0 0 3.4363 1780.52 487)">-</text><text fill="#5B6B7D" font-family="Arial,Arial_MSFontService,sans-serif" font-weight="400" font-size="11.5" transform="matrix(3.43728 0 0 3.4363 1793.69 487)">bit SAR ADC</text><text fill="#5B6B7D" font-family="Arial,Arial_MSFontService,sans-serif" font-weight="400" font-size="11.5" transform="matrix(3.43728 0 0 3.4363 1703.57 549)">500 </text><text fill="#5B6B7D" font-family="Arial,Arial_MSFontService,sans-serif" font-weight="400" font-size="11.5" transform="matrix(3.43728 0 0 3.4363 1780.5 549)">kSPS · dual ch</text><text fill="#5B6B7D" font-family="Arial,Arial_MSFontService,sans-serif" font-weight="400" font-size="11.5" transform="matrix(3.43728 0 0 3.4363 2041.96 549)">.</text><path d="M2034.29 343.63 2584.1 343.63 2584.1 659.77 2034.29 659.77Z" stroke="#C9D6E3" stroke-width="5.15445" fill="#FFFFFF" transform="matrix(1.00028 0 0 1 200.864 -24.6265)"/><text fill="#14385F" font-family="Arial,Arial_MSFontService,sans-serif" font-weight="700" font-size="15" transform="matrix(3.43728 0 0 3.4363 2390.4 422)">ZedBoard</text><text fill="#5B6B7D" font-family="Arial,Arial_MSFontService,sans-serif" font-weight="400" font-size="11.5" transform="matrix(3.43728 0 0 3.4363 2416.23 487)">Zynq</text><text fill="#5B6B7D" font-family="Arial,Arial_MSFontService,sans-serif" font-weight="400" font-size="11.5" transform="matrix(3.43728 0 0 3.4363 2504.1 487)">-</text><text fill="#5B6B7D" font-family="Arial,Arial_MSFontService,sans-serif" font-weight="400" font-size="11.5" transform="matrix(3.43728 0 0 3.4363 2517.27 487)">7020</text><text fill="#5B6B7D" font-family="Arial,Arial_MSFontService,sans-serif" font-weight="400" font-size="11.5" transform="matrix(3.43728 0 0 3.4363 2291.54 549)">Linux </text><text fill="#5B6B7D" font-family="Arial,Arial_MSFontService,sans-serif" font-weight="400" font-size="11.5" transform="matrix(3.43728 0 0 3.4363 2397.02 549)">+ </text><text fill="#5B6B7D" font-family="Arial,Arial_MSFontService,sans-serif" font-weight="400" font-size="11.5" transform="matrix(3.43728 0 0 3.4363 2431.09 549)">IIO</text><text fill="#5B6B7D" font-family="Arial,Arial_MSFontService,sans-serif" font-weight="400" font-size="11.5" transform="matrix(3.43728 0 0 3.4363 2483.8 549)">, </text><text fill="#5B6B7D" font-family="Arial,Arial_MSFontService,sans-serif" font-weight="400" font-size="11.5" transform="matrix(3.43728 0 0 3.4363 2505.76 549)">local capture</text><path d="M2666.57 343.63 3216.38 343.63 3216.38 659.77 2666.57 659.77Z" stroke="#C9D6E3" stroke-width="5.15445" fill="#FFFFFF" transform="matrix(1.00028 0 0 1 200.864 -24.6265)"/><text fill="#14385F" font-family="Arial,Arial_MSFontService,sans-serif" font-weight="700" font-size="15" transform="matrix(3.43728 0 0 3.4363 2942.65 422)">Gigabit Ethernet</text><text fill="#5B6B7D" font-family="Arial,Arial_MSFontService,sans-serif" font-weight="400" font-size="11.5" transform="matrix(3.43728 0 0 3.4363 2992.65 487)">galvanic isolation</text><text fill="#5B6B7D" font-family="Arial,Arial_MSFontService,sans-serif" font-weight="400" font-size="11.5" transform="matrix(3.43728 0 0 3.4363 2992.67 549)">IIO over Ethernet</text><path d="M3298.85 343.63 3848.66 343.63 3848.66 659.77 3298.85 659.77Z" stroke="#C9D6E3" stroke-width="5.15445" fill="#FFFFFF" transform="matrix(1.00028 0 0 1 200.864 -24.6265)"/><text fill="#14385F" font-family="Arial,Arial_MSFontService,sans-serif" font-weight="700" font-size="15" transform="matrix(3.43728 0 0 3.4363 3675.37 422)">Host PC</text><text fill="#5B6B7D" font-family="Arial,Arial_MSFontService,sans-serif" font-weight="400" font-size="11.5" transform="matrix(3.43728 0 0 3.4363 3629.52 487)">Python </text><text fill="#5B6B7D" font-family="Arial,Arial_MSFontService,sans-serif" font-weight="400" font-size="11.5" transform="matrix(3.43728 0 0 3.4363 3763.57 487)">(</text><text fill="#5B6B7D" font-family="Arial,Arial_MSFontService,sans-serif" font-weight="400" font-size="11.5" transform="matrix(3.43728 0 0 3.4363 3776.73 487)">capture</text><text fill="#5B6B7D" font-family="Arial,Arial_MSFontService,sans-serif" font-weight="400" font-size="11.5" transform="matrix(3.43728 0 0 3.4363 3908.58 487)">)</text><text fill="#5B6B7D" font-family="Arial,Arial_MSFontService,sans-serif" font-weight="400" font-size="11.5" transform="matrix(3.43728 0 0 3.4363 3607.96 549)">MATLAB </text><text fill="#5B6B7D" font-family="Arial,Arial_MSFontService,sans-serif" font-weight="400" font-size="11.5" transform="matrix(3.43728 0 0 3.4363 3774.16 549)">(</text><text fill="#5B6B7D" font-family="Arial,Arial_MSFontService,sans-serif" font-weight="400" font-size="11.5" transform="matrix(3.43728 0 0 3.4363 3787.33 549)">analysis</text><text fill="#5B6B7D" font-family="Arial,Arial_MSFontService,sans-serif" font-weight="400" font-size="11.5" transform="matrix(3.43728 0 0 3.4363 3930.14 549)">)</text><path d="M687.261 501.7 762.859 501.7" stroke="#E6821E" stroke-width="6.87261" stroke-dasharray="20.6178 17.1815" fill="none" transform="matrix(1.00028 0 0 1 200.864 -24.6265)"/><g><path d="M0 0 48.1082 20.6178 0 41.2356Z" fill="#E6821E" transform="matrix(1.00028 0 0 1 915.817 456.456)"/></g><path d="M1319.54 501.7 1395.14 501.7" stroke="#E6821E" stroke-width="6.87261" fill="none" transform="matrix(1.00028 0 0 1 200.864 -24.6265)"/><g><path d="M0 0 48.1082 20.6178 0 41.2356Z" fill="#E6821E" transform="matrix(1.00028 0 0 1 1548.28 456.456)"/></g><path d="M1951.82 501.7 2027.42 501.7" stroke="#E6821E" stroke-width="6.87261" fill="none" transform="matrix(1.00028 0 0 1 200.864 -24.6265)"/><g><path d="M0 0 48.1082 20.6178 0 41.2356Z" fill="#E6821E" transform="matrix(1.00028 0 0 1 2180.74 456.456)"/></g><path d="M2584.1 501.7 2659.7 501.7" stroke="#E6821E" stroke-width="6.87261" fill="none" transform="matrix(1.00028 0 0 1 200.864 -24.6265)"/><g><path d="M0 0 48.1082 20.6178 0 41.2356Z" fill="#E6821E" transform="matrix(1.00028 0 0 1 2813.19 456.456)"/></g><path d="M3216.38 501.7 3291.98 501.7" stroke="#E6821E" stroke-width="6.87261" fill="none" transform="matrix(1.00028 0 0 1 200.864 -24.6265)"/><g><path d="M0 0 48.1082 20.6178 0 41.2356Z" fill="#E6821E" transform="matrix(1.00028 0 0 1 3445.65 456.456)"/></g><text fill="#E6821E" font-family="Arial,Arial_MSFontService,sans-serif" font-weight="700" font-size="13" transform="matrix(3.43728 0 0 3.4363 1880.75 766)">No external anti</text><text fill="#E6821E" font-family="Arial,Arial_MSFontService,sans-serif" font-weight="700" font-size="13" transform="matrix(3.43728 0 0 3.4363 2215.97 766)">-</text><text fill="#E6821E" font-family="Arial,Arial_MSFontService,sans-serif" font-weight="700" font-size="13" transform="matrix(3.43728 0 0 3.4363 2230.85 766)">alias filter</text><text fill="#33475B" font-family="Arial,Arial_MSFontService,sans-serif" font-weight="400" font-size="12.5" transform="matrix(3.43728 0 0 3.4363 1354.57 834)">the AFE</text><text fill="#33475B" font-family="Arial,Arial_MSFontService,sans-serif" font-weight="400" font-size="12.5" transform="matrix(3.43728 0 0 3.4363 1507.43 834)">'</text><text fill="#33475B" font-family="Arial,Arial_MSFontService,sans-serif" font-weight="400" font-size="12.5" transform="matrix(3.43728 0 0 3.4363 1515.63 834)">s own </text><text fill="#33475B" font-family="Arial,Arial_MSFontService,sans-serif" font-weight="400" font-size="12.5" transform="matrix(3.43728 0 0 3.4363 1639.81 834)">~</text><text fill="#33475B" font-family="Arial,Arial_MSFontService,sans-serif" font-weight="400" font-size="12.5" transform="matrix(3.43728 0 0 3.4363 1664.9 834)">48</text><text fill="#33475B" font-family="Arial,Arial_MSFontService,sans-serif" font-weight="400" font-size="12.5" transform="matrix(3.43728 0 0 3.4363 1712.69 834)">–</text><text fill="#33475B" font-family="Arial,Arial_MSFontService,sans-serif" font-weight="400" font-size="12.5" transform="matrix(3.43728 0 0 3.4363 1736.59 834)">55 </text><text fill="#33475B" font-family="Arial,Arial_MSFontService,sans-serif" font-weight="400" font-size="12.5" transform="matrix(3.43728 0 0 3.4363 1796.32 834)">kHz rolloff already band</text><text fill="#33475B" font-family="Arial,Arial_MSFontService,sans-serif" font-weight="400" font-size="12.5" transform="matrix(3.43728 0 0 3.4363 2246.91 834)">-</text><text fill="#33475B" font-family="Arial,Arial_MSFontService,sans-serif" font-weight="400" font-size="12.5" transform="matrix(3.43728 0 0 3.4363 2261.22 834)">limits well below the </text><text fill="#33475B" font-family="Arial,Arial_MSFontService,sans-serif" font-weight="400" font-size="12.5" transform="matrix(3.43728 0 0 3.4363 2652.82 834)">250 </text><text fill="#33475B" font-family="Arial,Arial_MSFontService,sans-serif" font-weight="400" font-size="12.5" transform="matrix(3.43728 0 0 3.4363 2736.45 834)">kHz Nyquist</text><path d="M3814.3 1030.89C3833.27 1030.89 3848.66 1046.28 3848.66 1065.25L3848.66 1958.69C3848.66 1977.67 3833.27 1993.06 3814.3 1993.06L103.089 1993.06C84.1109 1993.06 68.7261 1977.67 68.7261 1958.69L68.7261 1065.25C68.7261 1046.28 84.1109 1030.89 103.089 1030.89Z" stroke="#DBE3EC" stroke-width="3.4363" fill="#F4F7FA" transform="matrix(1.00028 0 0 1 200.864 -24.6265)"/><path d="M3814.3 1030.89C3833.27 1030.89 3848.66 1046.28 3848.66 1065.25L3848.66 1133.98C3848.66 1152.96 3833.27 1168.34 3814.3 1168.34L103.089 1168.34C84.1109 1168.34 68.7261 1152.96 68.7261 1133.98L68.7261 1065.25C68.7261 1046.28 84.1109 1030.89 103.089 1030.89Z" fill="#14385F" transform="matrix(1.00028 0 0 1 200.864 -24.6265)"/><path d="M68.7261 1099.62 3848.66 1099.62 3848.66 1168.34 68.7261 1168.34Z" fill="#14385F" transform="matrix(1.00028 0 0 1 200.864 -24.6265)"/><text fill="#FFFFFF" font-family="Arial,Arial_MSFontService,sans-serif" font-weight="700" font-size="18" transform="matrix(3.43728 0 0 3.4363 352.104 1099)">POWER </text><text fill="#FFFFFF" font-family="Arial,Arial_MSFontService,sans-serif" font-weight="700" font-size="18" transform="matrix(3.43728 0 0 3.4363 620.218 1099)">— </text><text fill="#FFFFFF" font-family="Arial,Arial_MSFontService,sans-serif" font-weight="700" font-size="18" transform="matrix(3.43728 0 0 3.4363 702.716 1099)">TWO GALVANICALLY ISOLATED RAILS</text><text fill="#33475B" font-family="Arial,Arial_MSFontService,sans-serif" font-weight="700" font-size="12.5" transform="matrix(3.43728 0 0 3.4363 865.263 1254)">DIGITAL DOMAIN </text><text fill="#33475B" font-family="Arial,Arial_MSFontService,sans-serif" font-weight="700" font-size="12.5" transform="matrix(3.43728 0 0 3.4363 1231.25 1254)">— </text><text fill="#33475B" font-family="Arial,Arial_MSFontService,sans-serif" font-weight="700" font-size="12.5" transform="matrix(3.43728 0 0 3.4363 1286.15 1254)">loud</text><text fill="#33475B" font-family="Arial,Arial_MSFontService,sans-serif" font-weight="700" font-size="12.5" transform="matrix(3.43728 0 0 3.4363 1376.83 1254)">, </text><text fill="#33475B" font-family="Arial,Arial_MSFontService,sans-serif" font-weight="700" font-size="12.5" transform="matrix(3.43728 0 0 3.4363 1400.7 1254)">switching</text><path d="M412.356 1347.03 1649.43 1347.03 1649.43 1539.46 412.356 1539.46Z" stroke="#C9D6E3" stroke-width="5.15445" fill="#FFFFFF" transform="matrix(1.00028 0 0 1 200.864 -24.6265)"/><text fill="#14385F" font-family="Arial,Arial_MSFontService,sans-serif" font-weight="700" font-size="15" transform="matrix(3.43728 0 0 3.4363 974.15 1405)">12 </text><text fill="#14385F" font-family="Arial,Arial_MSFontService,sans-serif" font-weight="700" font-size="15" transform="matrix(3.43728 0 0 3.4363 1045.82 1405)">V LiFePO</text><text fill="#14385F" font-family="Arial,Arial_MSFontService,sans-serif" font-weight="700" font-size="15" transform="matrix(3.43728 0 0 3.4363 1275.02 1405)">4 </text><text fill="#14385F" font-family="Arial,Arial_MSFontService,sans-serif" font-weight="700" font-size="15" transform="matrix(3.43728 0 0 3.4363 1318.02 1405)">battery</text><text fill="#5B6B7D" font-family="Arial,Arial_MSFontService,sans-serif" font-weight="400" font-size="11.5" transform="matrix(3.43728 0 0 3.4363 764.12 1470)">→ </text><text fill="#5B6B7D" font-family="Arial,Arial_MSFontService,sans-serif" font-weight="400" font-size="11.5" transform="matrix(3.43728 0 0 3.4363 814.631 1470)">ZedBoard J</text><text fill="#5B6B7D" font-family="Arial,Arial_MSFontService,sans-serif" font-weight="400" font-size="11.5" transform="matrix(3.43728 0 0 3.4363 1018.97 1470)">20 </text><text fill="#5B6B7D" font-family="Arial,Arial_MSFontService,sans-serif" font-weight="400" font-size="11.5" transform="matrix(3.43728 0 0 3.4363 1073.92 1470)">(</text><text fill="#5B6B7D" font-family="Arial,Arial_MSFontService,sans-serif" font-weight="400" font-size="11.5" transform="matrix(3.43728 0 0 3.4363 1087.09 1470)">Zynq</text><text fill="#5B6B7D" font-family="Arial,Arial_MSFontService,sans-serif" font-weight="400" font-size="11.5" transform="matrix(3.43728 0 0 3.4363 1174.96 1470)">, </text><text fill="#5B6B7D" font-family="Arial,Arial_MSFontService,sans-serif" font-weight="400" font-size="11.5" transform="matrix(3.43728 0 0 3.4363 1196.93 1470)">Eth PHY</text><text fill="#5B6B7D" font-family="Arial,Arial_MSFontService,sans-serif" font-weight="400" font-size="11.5" transform="matrix(3.43728 0 0 3.4363 1348.52 1470)">, </text><text fill="#5B6B7D" font-family="Arial,Arial_MSFontService,sans-serif" font-weight="400" font-size="11.5" transform="matrix(3.43728 0 0 3.4363 1370.48 1470)">on</text><text fill="#5B6B7D" font-family="Arial,Arial_MSFontService,sans-serif" font-weight="400" font-size="11.5" transform="matrix(3.43728 0 0 3.4363 1414.45 1470)">-</text><text fill="#5B6B7D" font-family="Arial,Arial_MSFontService,sans-serif" font-weight="400" font-size="11.5" transform="matrix(3.43728 0 0 3.4363 1427.62 1470)">board DC</text><text fill="#5B6B7D" font-family="Arial,Arial_MSFontService,sans-serif" font-weight="400" font-size="11.5" transform="matrix(3.43728 0 0 3.4363 1596.79 1470)">-</text><text fill="#5B6B7D" font-family="Arial,Arial_MSFontService,sans-serif" font-weight="400" font-size="11.5" transform="matrix(3.43728 0 0 3.4363 1609.95 1470)">DCs</text><text fill="#5B6B7D" font-family="Arial,Arial_MSFontService,sans-serif" font-weight="400" font-size="11.5" transform="matrix(3.43728 0 0 3.4363 1686.81 1470)">)</text><text fill="#33475B" font-family="Arial,Arial_MSFontService,sans-serif" font-weight="700" font-size="12.5" transform="matrix(3.43728 0 0 3.4363 2679.58 1254)">ANALOG DOMAIN </text><text fill="#33475B" font-family="Arial,Arial_MSFontService,sans-serif" font-weight="700" font-size="12.5" transform="matrix(3.43728 0 0 3.4363 3063.86 1254)">— </text><text fill="#33475B" font-family="Arial,Arial_MSFontService,sans-serif" font-weight="700" font-size="12.5" transform="matrix(3.43728 0 0 3.4363 3118.76 1254)">quiet</text><text fill="#33475B" font-family="Arial,Arial_MSFontService,sans-serif" font-weight="700" font-size="12.5" transform="matrix(3.43728 0 0 3.4363 3221.4 1254)">, </text><text fill="#33475B" font-family="Arial,Arial_MSFontService,sans-serif" font-weight="700" font-size="12.5" transform="matrix(3.43728 0 0 3.4363 3245.27 1254)">sub</text><text fill="#33475B" font-family="Arial,Arial_MSFontService,sans-serif" font-weight="700" font-size="12.5" transform="matrix(3.43728 0 0 3.4363 3321.66 1254)">-</text><text fill="#33475B" font-family="Arial,Arial_MSFontService,sans-serif" font-weight="700" font-size="12.5" transform="matrix(3.43728 0 0 3.4363 3335.96 1254)">µV floor</text><path d="M2267.96 1347.03 3505.03 1347.03 3505.03 1539.46 2267.96 1539.46Z" stroke="#E6B07A" stroke-width="5.15445" fill="#FFF6EC" transform="matrix(1.00028 0 0 1 200.864 -24.6265)"/><text fill="#14385F" font-family="Arial,Arial_MSFontService,sans-serif" font-weight="700" font-size="15" transform="matrix(3.43728 0 0 3.4363 2637.35 1388)">12 </text><text fill="#14385F" font-family="Arial,Arial_MSFontService,sans-serif" font-weight="700" font-size="15" transform="matrix(3.43728 0 0 3.4363 2709.02 1388)">V </text><text fill="#14385F" font-family="Arial,Arial_MSFontService,sans-serif" font-weight="700" font-size="15" transform="matrix(3.43728 0 0 3.4363 2757.74 1388)">(</text><text fill="#14385F" font-family="Arial,Arial_MSFontService,sans-serif" font-weight="700" font-size="15" transform="matrix(3.43728 0 0 3.4363 2774.91 1388)">separate</text><text fill="#14385F" font-family="Arial,Arial_MSFontService,sans-serif" font-weight="700" font-size="15" transform="matrix(3.43728 0 0 3.4363 2987.01 1388)">) </text><text fill="#14385F" font-family="Arial,Arial_MSFontService,sans-serif" font-weight="700" font-size="15" transform="matrix(3.43728 0 0 3.4363 3018.5 1388)">→ </text><text fill="#14385F" font-family="Arial,Arial_MSFontService,sans-serif" font-weight="700" font-size="15" transform="matrix(3.43728 0 0 3.4363 3084.39 1388)">LT</text><text fill="#14385F" font-family="Arial,Arial_MSFontService,sans-serif" font-weight="700" font-size="15" transform="matrix(3.43728 0 0 3.4363 3143.55 1388)">3045 </text><text fill="#14385F" font-family="Arial,Arial_MSFontService,sans-serif" font-weight="700" font-size="15" transform="matrix(3.43728 0 0 3.4363 3272.57 1388)">LDO </text><text fill="#14385F" font-family="Arial,Arial_MSFontService,sans-serif" font-weight="700" font-size="15" transform="matrix(3.43728 0 0 3.4363 3395.73 1388)">→ </text><text fill="#14385F" font-family="Arial,Arial_MSFontService,sans-serif" font-weight="700" font-size="15" transform="matrix(3.43728 0 0 3.4363 3461.61 1388)">5 </text><text fill="#14385F" font-family="Arial,Arial_MSFontService,sans-serif" font-weight="700" font-size="15" transform="matrix(3.43728 0 0 3.4363 3504.61 1388)">V</text><text fill="#5B6B7D" font-family="Arial,Arial_MSFontService,sans-serif" font-weight="400" font-size="11.5" transform="matrix(3.43728 0 0 3.4363 2631.55 1453)">0</text><text fill="#5B6B7D" font-family="Arial,Arial_MSFontService,sans-serif" font-weight="400" font-size="11.5" transform="matrix(3.43728 0 0 3.4363 2653.53 1453)">.</text><text fill="#5B6B7D" font-family="Arial,Arial_MSFontService,sans-serif" font-weight="400" font-size="11.5" transform="matrix(3.43728 0 0 3.4363 2664.52 1453)">8 </text><text fill="#5B6B7D" font-family="Arial,Arial_MSFontService,sans-serif" font-weight="400" font-size="11.5" transform="matrix(3.43728 0 0 3.4363 2697.48 1453)">µVrms · </text><text fill="#5B6B7D" font-family="Arial,Arial_MSFontService,sans-serif" font-weight="400" font-size="11.5" transform="matrix(3.43728 0 0 3.4363 2846.14 1453)">&gt;</text><text fill="#5B6B7D" font-family="Arial,Arial_MSFontService,sans-serif" font-weight="400" font-size="11.5" transform="matrix(3.43728 0 0 3.4363 2869.22 1453)">75 </text><text fill="#5B6B7D" font-family="Arial,Arial_MSFontService,sans-serif" font-weight="400" font-size="11.5" transform="matrix(3.43728 0 0 3.4363 2924.17 1453)">dB PSRR </text><text fill="#5B6B7D" font-family="Arial,Arial_MSFontService,sans-serif" font-weight="400" font-size="11.5" transform="matrix(3.43728 0 0 3.4363 3104.31 1453)">→ </text><text fill="#5B6B7D" font-family="Arial,Arial_MSFontService,sans-serif" font-weight="400" font-size="11.5" transform="matrix(3.43728 0 0 3.4363 3154.82 1453)">preamp </text><text fill="#5B6B7D" font-family="Arial,Arial_MSFontService,sans-serif" font-weight="400" font-size="11.5" transform="matrix(3.43728 0 0 3.4363 3299.83 1453)">+ </text><text fill="#5B6B7D" font-family="Arial,Arial_MSFontService,sans-serif" font-weight="400" font-size="11.5" transform="matrix(3.43728 0 0 3.4363 3333.9 1453)">UAE sensor</text><path d="M1958.69 1237.07 1958.69 1670.04" stroke="#E6821E" stroke-width="6.87261" stroke-dasharray="20.6178 17.1815" fill="none" transform="matrix(1.00028 0 0 1 200.864 -24.6265)"/><path d="M1958.69 1800.62 1958.69 1855.6" stroke="#E6821E" stroke-width="6.87261" stroke-dasharray="20.6178 17.1815" fill="none" transform="matrix(1.00028 0 0 1 200.864 -24.6265)"/><text fill="#E6821E" font-family="Arial,Arial_MSFontService,sans-serif" font-weight="700" font-size="11" transform="matrix(3.43728 0 0 3.4363 2084.45 1694)">galvanic</text><text fill="#E6821E" font-family="Arial,Arial_MSFontService,sans-serif" font-weight="700" font-size="11" transform="matrix(3.43728 0 0 3.4363 2082.39 1742)">isolation</text><text fill="#33475B" font-family="Arial,Arial_MSFontService,sans-serif" font-weight="400" font-size="12.5" transform="matrix(3.43728 0 0 3.4363 1207.93 1900)">24</text><text fill="#33475B" font-family="Arial,Arial_MSFontService,sans-serif" font-weight="400" font-size="12.5" transform="matrix(3.43728 0 0 3.4363 1255.72 1900)">-</text><text fill="#33475B" font-family="Arial,Arial_MSFontService,sans-serif" font-weight="400" font-size="12.5" transform="matrix(3.43728 0 0 3.4363 1270.03 1900)">bit floor sits at the µV level </text><text fill="#33475B" font-family="Arial,Arial_MSFontService,sans-serif" font-weight="400" font-size="12.5" transform="matrix(3.43728 0 0 3.4363 1784.34 1900)">— </text><text fill="#33475B" font-family="Arial,Arial_MSFontService,sans-serif" font-weight="400" font-size="12.5" transform="matrix(3.43728 0 0 3.4363 1839.24 1900)">a shared ground turns digital switching into measured analog noise</text></g></g></g><rect x="274" y="871" width="3778" height="170" fill="#14385F"/><text fill="#FFFFFF" font-family="Calibri,Calibri_MSFontService,sans-serif" font-weight="700" font-size="110" transform="matrix(1 0 0 1 273.81 992)">Power Architecture</text><g clip-path="url(#clip4)"><g filter="url(#fx0)" transform="matrix(2 0 0 2 235 1027)"><g><rect x="19.7501" y="19.6874" width="897.5" height="727.5" stroke="#E2E8F0" stroke-width="2" stroke-linejoin="round" stroke-miterlimit="10" fill="#FFFFFF"/></g></g></g><rect x="274.5" y="1059.5" width="1795" height="1455" stroke="#E2E8F0" stroke-width="3.4375" stroke-linejoin="round" stroke-miterlimit="10" fill="#FFFFFF"/><rect x="274.5" y="1059.5" width="1795" height="25.0001" stroke="#1E4976" stroke-width="4.58333" stroke-linejoin="round" stroke-miterlimit="10" fill="#1E4976"/><text fill="#1E4976" font-family="Calibri,Calibri_MSFontService,sans-serif" font-weight="700" font-size="73" transform="matrix(1 0 0 1 366.667 1185)">DIGITAL DOMAIN</text><text fill="#64748B" font-family="Calibri,Calibri_MSFontService,sans-serif" font-style="italic" font-weight="400" font-size="73" transform="matrix(1 0 0 1 366.667 1270)">Loud, fast, switching</text><g clip-path="url(#clip5)"><g filter="url(#fx1)" transform="matrix(2 0 0 2 2208 1027)"><g><rect x="19.75" y="19.6874" width="897.5" height="727.5" stroke="#E2E8F0" stroke-width="2" stroke-linejoin="round" stroke-miterlimit="10" fill="#FFFFFF"/></g></g></g><rect x="2247.5" y="1059.5" width="1795" height="1455" stroke="#E2E8F0" stroke-width="3.4375" stroke-linejoin="round" stroke-miterlimit="10" fill="#FFFFFF"/><rect x="2233.5" y="1059.5" width="1795" height="25.0001" stroke="#D97706" stroke-width="4.58333" stroke-linejoin="round" stroke-miterlimit="10" fill="#D97706"/><text fill="#D97706" font-family="Calibri,Calibri_MSFontService,sans-serif" font-weight="700" font-size="73" transform="matrix(1 0 0 1 2325.93 1185)">ANALOG DOMAIN</text><text fill="#64748B" font-family="Calibri,Calibri_MSFontService,sans-serif" font-style="italic" font-weight="400" font-size="73" transform="matrix(1 0 0 1 2325.93 1270)">Quiet, sub</text><text fill="#64748B" font-family="Calibri,Calibri_MSFontService,sans-serif" font-style="italic" font-weight="400" font-size="73" transform="matrix(1 0 0 1 2627.47 1270)">-</text><text fill="#64748B" font-family="Calibri,Calibri_MSFontService,sans-serif" font-style="italic" font-weight="400" font-size="73" transform="matrix(1 0 0 1 2649.81 1270)">µV noise floor</text><path d="M583 1371.6C583 1361.33 591.327 1353 601.599 1353L1741.4 1353C1751.67 1353 1760 1361.33 1760 1371.6L1760 1551.4C1760 1561.67 1751.67 1570 1741.4 1570L601.599 1570C591.327 1570 583 1561.67 583 1551.4Z" stroke="#1E4976" stroke-width="5.72917" stroke-linejoin="round" stroke-miterlimit="10" fill="#EFF4FA" fill-rule="evenodd"/><text fill="#1E4976" font-family="Calibri,Calibri_MSFontService,sans-serif" font-weight="700" font-size="73" transform="matrix(1 0 0 1 859.637 1482)">12 V LiFePO₄ battery</text><path d="M1174.94 1585.5 1174.94 1655.58 1168.06 1655.58 1168.06 1585.5ZM1185.25 1651 1171.5 1678.5 1157.75 1651Z" fill="#1E4976"/><path d="M583 1696.6C583 1686.33 591.327 1678 601.599 1678L1741.4 1678C1751.67 1678 1760 1686.33 1760 1696.6L1760 1876.4C1760 1886.67 1751.67 1895 1741.4 1895L601.599 1895C591.327 1895 583 1886.67 583 1876.4Z" stroke="#1E4976" stroke-width="5.72917" stroke-linejoin="round" stroke-miterlimit="10" fill="#EFF4FA" fill-rule="evenodd"/><text fill="#1E4976" font-family="Calibri,Calibri_MSFontService,sans-serif" font-weight="700" font-size="73" transform="matrix(1 0 0 1 967.884 1769)">ZedBoard J20</text><text fill="#64748B" font-family="Calibri,Calibri_MSFontService,sans-serif" font-style="italic" font-weight="400" font-size="73" transform="matrix(1 0 0 1 879.861 1859)">Power input header</text><path d="M1174.94 1910.5 1174.94 1980.58 1168.06 1980.58 1168.06 1910.5ZM1185.25 1976 1171.5 2003.5 1157.75 1976Z" fill="#1E4976"/><path d="M583 2021.6C583 2011.33 591.327 2003 601.599 2003L1741.4 2003C1751.67 2003 1760 2011.33 1760 2021.6L1760 2201.4C1760 2211.67 1751.67 2220 1741.4 2220L601.599 2220C591.327 2220 583 2211.67 583 2201.4Z" stroke="#1E4976" stroke-width="5.72917" stroke-linejoin="round" stroke-miterlimit="10" fill="#EFF4FA" fill-rule="evenodd"/><text fill="#1E4976" font-family="Calibri,Calibri_MSFontService,sans-serif" font-weight="700" font-size="73" transform="matrix(1 0 0 1 867.853 2094)">Zynq SoC + PL fabric</text><text fill="#64748B" font-family="Calibri,Calibri_MSFontService,sans-serif" font-style="italic" font-weight="400" font-size="73" transform="matrix(1 0 0 1 774.296 2184)">Eth PHY · on</text><text fill="#64748B" font-family="Calibri,Calibri_MSFontService,sans-serif" font-style="italic" font-weight="400" font-size="73" transform="matrix(1 0 0 1 1134.84 2184)">-</text><text fill="#64748B" font-family="Calibri,Calibri_MSFontService,sans-serif" font-style="italic" font-weight="400" font-size="73" transform="matrix(1 0 0 1 1157.19 2184)">board DC</text><text fill="#64748B" font-family="Calibri,Calibri_MSFontService,sans-serif" font-style="italic" font-weight="400" font-size="73" transform="matrix(1 0 0 1 1433.91 2184)">-</text><text fill="#64748B" font-family="Calibri,Calibri_MSFontService,sans-serif" font-style="italic" font-weight="400" font-size="73" transform="matrix(1 0 0 1 1456.25 2184)">DCs</text><path d="M2543 1371.55C2543 1361.3 2551.3 1353 2561.55 1353L3700.45 1353C3710.7 1353 3719 1361.3 3719 1371.55L3719 1504.45C3719 1514.7 3710.7 1523 3700.45 1523L2561.55 1523C2551.3 1523 2543 1514.7 2543 1504.45Z" stroke="#D97706" stroke-width="5.72917" stroke-linejoin="round" stroke-miterlimit="10" fill="#FEF6EC" fill-rule="evenodd"/><text fill="#D97706" font-family="Calibri,Calibri_MSFontService,sans-serif" font-weight="700" font-size="73" transform="matrix(1 0 0 1 2840.95 1462)">12 V (separate cell)</text><path d="M3134.94 1532.5 3134.94 1568.58 3128.06 1568.58 3128.06 1532.5ZM3145.25 1564 3131.5 1591.5 3117.75 1564Z" fill="#D97706"/><path d="M2543 1609.65C2543 1599.35 2551.35 1591 2561.65 1591L3700.35 1591C3710.65 1591 3719 1599.35 3719 1609.65L3719 1743.35C3719 1753.65 3710.65 1762 3700.35 1762L2561.65 1762C2551.35 1762 2543 1753.65 2543 1743.35Z" stroke="#D97706" stroke-width="5.72917" stroke-linejoin="round" stroke-miterlimit="10" fill="#FEF6EC" fill-rule="evenodd"/><text fill="#D97706" font-family="Calibri,Calibri_MSFontService,sans-serif" font-weight="700" font-size="73" transform="matrix(1 0 0 1 2953.47 1672)">LT3045 LDO</text><text fill="#64748B" font-family="Calibri,Calibri_MSFontService,sans-serif" font-style="italic" font-weight="400" font-size="73" transform="matrix(1 0 0 1 2767.97 1739)">0.8 µVrms · &gt;75 dB PSRR</text><path d="M3134.94 1771.5 3134.94 1807.58 3128.06 1807.58 3128.06 1771.5ZM3145.25 1803 3131.5 1830.5 3117.75 1803Z" fill="#D97706"/><path d="M2543 1848.55C2543 1838.3 2551.3 1830 2561.55 1830L3700.45 1830C3710.7 1830 3719 1838.3 3719 1848.55L3719 1981.45C3719 1991.7 3710.7 2000 3700.45 2000L2561.55 2000C2551.3 2000 2543 1991.7 2543 1981.45Z" stroke="#D97706" stroke-width="5.72917" stroke-linejoin="round" stroke-miterlimit="10" fill="#FEF6EC" fill-rule="evenodd"/><text fill="#D97706" font-family="Calibri,Calibri_MSFontService,sans-serif" font-weight="700" font-size="73" transform="matrix(1 0 0 1 2915.21 1939)">5 V analog rail</text><path d="M3134.94 2009.5 3134.94 2045.58 3128.06 2045.58 3128.06 2009.5ZM3145.25 2041 3131.5 2068.5 3117.75 2041Z" fill="#D97706"/><path d="M2543 2086.55C2543 2076.3 2551.3 2068 2561.55 2068L3700.45 2068C3710.7 2068 3719 2076.3 3719 2086.55L3719 2219.45C3719 2229.7 3710.7 2238 3700.45 2238L2561.55 2238C2551.3 2238 2543 2229.7 2543 2219.45Z" stroke="#D97706" stroke-width="5.72917" stroke-linejoin="round" stroke-miterlimit="10" fill="#FEF6EC" fill-rule="evenodd"/><text fill="#D97706" font-family="Calibri,Calibri_MSFontService,sans-serif" font-weight="700" font-size="73" transform="matrix(1 0 0 1 2913.01 2177)">CMPA preamp</text><path d="M3134.94 2247.5 3134.94 2283.58 3128.06 2283.58 3128.06 2247.5ZM3145.25 2279 3131.5 2306.5 3117.75 2279Z" fill="#D97706"/><path d="M2543 2324.65C2543 2314.35 2551.35 2306 2561.65 2306L3700.35 2306C3710.65 2306 3719 2314.35 3719 2324.65L3719 2458.35C3719 2468.65 3710.65 2477 3700.35 2477L2561.65 2477C2551.35 2477 2543 2468.65 2543 2458.35Z" stroke="#D97706" stroke-width="5.72917" stroke-linejoin="round" stroke-miterlimit="10" fill="#FEF6EC" fill-rule="evenodd"/><text fill="#D97706" font-family="Calibri,Calibri_MSFontService,sans-serif" font-weight="700" font-size="73" transform="matrix(1 0 0 1 2933.31 2415)">CM24 sensor</text><path d="M2151.5 1152.5 2151.5 1189.5" stroke="#D97706" stroke-width="9.16667" stroke-linejoin="round" stroke-miterlimit="10" fill="none" fill-rule="evenodd"/><path d="M2151.5 1220.5 2151.5 1257.5" stroke="#D97706" stroke-width="9.16667" stroke-linejoin="round" stroke-miterlimit="10" fill="none" fill-rule="evenodd"/><path d="M2151.5 1288.5 2151.5 1325.5" stroke="#D97706" stroke-width="9.16667" stroke-linejoin="round" stroke-miterlimit="10" fill="none" fill-rule="evenodd"/><path d="M2151.5 1356.5 2151.5 1393.5" stroke="#D97706" stroke-width="9.16667" stroke-linejoin="round" stroke-miterlimit="10" fill="none" fill-rule="evenodd"/><path d="M2151.5 1424.5 2151.5 1461.5" stroke="#D97706" stroke-width="9.16667" stroke-linejoin="round" stroke-miterlimit="10" fill="none" fill-rule="evenodd"/><path d="M2151.5 1492.5 2151.5 1529.5" stroke="#D97706" stroke-width="9.16667" stroke-linejoin="round" stroke-miterlimit="10" fill="none" fill-rule="evenodd"/><path d="M2151.5 1560.5 2151.5 1597.5" stroke="#D97706" stroke-width="9.16667" stroke-linejoin="round" stroke-miterlimit="10" fill="none" fill-rule="evenodd"/><path d="M2151.5 1628.5 2151.5 1666.5" stroke="#D97706" stroke-width="9.16667" stroke-linejoin="round" stroke-miterlimit="10" fill="none" fill-rule="evenodd"/><path d="M2151.5 1697.5 2151.5 1734.5" stroke="#D97706" stroke-width="9.16667" stroke-linejoin="round" stroke-miterlimit="10" fill="none" fill-rule="evenodd"/><path d="M2151.5 1765.5 2151.5 1802.5" stroke="#D97706" stroke-width="9.16667" stroke-linejoin="round" stroke-miterlimit="10" fill="none" fill-rule="evenodd"/><path d="M2151.5 1833.5 2151.5 1870.5" stroke="#D97706" stroke-width="9.16667" stroke-linejoin="round" stroke-miterlimit="10" fill="none" fill-rule="evenodd"/><path d="M2151.5 1901.5 2151.5 1938.5" stroke="#D97706" stroke-width="9.16667" stroke-linejoin="round" stroke-miterlimit="10" fill="none" fill-rule="evenodd"/><path d="M2151.5 1969.5 2151.5 2006.5" stroke="#D97706" stroke-width="9.16667" stroke-linejoin="round" stroke-miterlimit="10" fill="none" fill-rule="evenodd"/><path d="M2151.5 2037.5 2151.5 2074.5" stroke="#D97706" stroke-width="9.16667" stroke-linejoin="round" stroke-miterlimit="10" fill="none" fill-rule="evenodd"/><path d="M2151.5 2105.5 2151.5 2142.5" stroke="#D97706" stroke-width="9.16667" stroke-linejoin="round" stroke-miterlimit="10" fill="none" fill-rule="evenodd"/><path d="M2151.5 2173.5 2151.5 2210.5" stroke="#D97706" stroke-width="9.16667" stroke-linejoin="round" stroke-miterlimit="10" fill="none" fill-rule="evenodd"/><path d="M2151.5 2241.5 2151.5 2278.5" stroke="#D97706" stroke-width="9.16667" stroke-linejoin="round" stroke-miterlimit="10" fill="none" fill-rule="evenodd"/><path d="M2151.5 2309.5 2151.5 2347.5" stroke="#D97706" stroke-width="9.16667" stroke-linejoin="round" stroke-miterlimit="10" fill="none" fill-rule="evenodd"/><path d="M1996.5 1657.2C1996.5 1643.56 2007.56 1632.5 2021.2 1632.5L2281.8 1632.5C2295.44 1632.5 2306.5 1643.56 2306.5 1657.2L2306.5 1854.8C2306.5 1868.44 2295.44 1879.5 2281.8 1879.5L2021.2 1879.5C2007.56 1879.5 1996.5 1868.44 1996.5 1854.8Z" stroke="#D97706" stroke-width="6.875" stroke-linejoin="round" stroke-miterlimit="10" fill="#0E2A47" fill-rule="evenodd"/><text fill="#FFFFFF" font-family="Aptos,Aptos_MSFontService,sans-serif" font-weight="400" font-size="55" transform="matrix(1 0 0 1 2046.87 1706)">Galvanic </text><text fill="#FFFFFF" font-family="Aptos,Aptos_MSFontService,sans-serif" font-weight="400" font-size="55" transform="matrix(1 0 0 1 2048.45 1772)">isolation</text><rect x="274.5" y="2563.5" width="3778" height="331" stroke="#0E2A47" stroke-width="4.58333" stroke-linejoin="round" stroke-miterlimit="10" fill="#0E2A47"/><rect x="274.5" y="2563.5" width="36.9998" height="294" stroke="#D97706" stroke-width="4.58333" stroke-linejoin="round" stroke-miterlimit="10" fill="#D97706"/><text fill="#F59E0B" font-family="Calibri,Calibri_MSFontService,sans-serif" font-weight="700" font-size="73" transform="matrix(1 0 0 1 351.19 2674)">WHY THIS MATTERS</text><text fill="#FFFFFF" font-family="Calibri,Calibri_MSFontService,sans-serif" font-weight="400" font-size="73" transform="matrix(1 0 0 1 351.19 2765)">24</text><text fill="#FFFFFF" font-family="Calibri,Calibri_MSFontService,sans-serif" font-weight="400" font-size="73" transform="matrix(1 0 0 1 425.67 2765)">-</text><text fill="#FFFFFF" font-family="Calibri,Calibri_MSFontService,sans-serif" font-weight="400" font-size="73" transform="matrix(1 0 0 1 448.013 2765)">bit ADC noise floor sits at the µV level. A shared ground or power return turns nanosecond</text><text fill="#FFFFFF" font-family="Calibri,Calibri_MSFontService,sans-serif" font-weight="400" font-size="73" transform="matrix(1 0 0 1 3137.9 2765)">-</text><text fill="#FFFFFF" font-family="Calibri,Calibri_MSFontService,sans-serif" font-weight="400" font-size="73" transform="matrix(1 0 0 1 3160.25 2765)">scale digital switching into </text><text fill="#FFFFFF" font-family="Calibri,Calibri_MSFontService,sans-serif" font-weight="400" font-size="73" transform="matrix(1 0 0 1 351.19 2852)">measured analog noise. Galvanic separation is the cheapest fix and the only one that survives field deployment.</text></g></svg>